<svg id="Layer_1" data-name="Layer 1" xmlns="http://www.w3.org/2000/svg" viewBox="0 0 48.38 45.18"><defs><style>.cls-1{fill:#cbb06d;}</style></defs><title>favicon</title><path class="cls-1" d="M123.78,92.21l-10.45,7.56-7.69-6-2.35,1.68-1-1.34,4.36-3V72.59l-2.35-3-2.68,1.68-1-1.34,9.4-6.38,5.13,5.52L120,63.51h.72a3.84,3.84,0,0,0,3,1.73,3.78,3.78,0,0,0,1.87-.43,3.7,3.7,0,0,0,1.42-1.3h2.09a26.46,26.46,0,0,1-.75,3.87,11.14,11.14,0,0,1-1.32,3.14,6.15,6.15,0,0,1-2.51,2.26,5.86,5.86,0,0,1-2.61.51,7.54,7.54,0,0,1-2.61-.61,11.07,11.07,0,0,1-3.42-2.28V91.05l2.76,2.18,3.78-2.58Z" transform="translate(-100.6 -63.51)"/><path class="cls-1" d="M147,76.8a15.61,15.61,0,0,1-2,3.34,17.38,17.38,0,0,1-2.12,2.17l6,4.46V97.34l-13.82,8.4a6.55,6.55,0,0,0-3.2-2.86,5.18,5.18,0,0,0-2.13-.41,3.72,3.72,0,0,0-2,.65,2.68,2.68,0,0,0-1,1.2,2.21,2.21,0,0,0,0,1.52,2,2,0,0,0,.87,1l-.68,1.84a6.86,6.86,0,0,1-3.79-3.67,7.76,7.76,0,0,1-.19-5.31c.79-2.54,2.64-4.61,4.53-6.49.57-.55,1.14-1.1,1.73-1.64l-5.3-4.18V77.6l14.47-8.4a7.26,7.26,0,0,0,2.89,2.52,5.21,5.21,0,0,0,2.29.54,3.73,3.73,0,0,0,2.21-.75A3.18,3.18,0,0,0,147,69.34h2A24,24,0,0,1,147,76.8ZM133.49,90.4c-1.58,1.35-3.13,2.75-4.62,4.2-.7.68-1.39,1.37-2,2.11A7.89,7.89,0,0,1,131,95.09a8.65,8.65,0,0,1,4.5.87,9.3,9.3,0,0,1,4.35,4.49V91.33L136,88.24Zm7.49-9A19.4,19.4,0,0,0,143.44,79c.22-.28.44-.57.64-.86a8.12,8.12,0,0,1-6.8.11,8.4,8.4,0,0,1-4.35-4.48v9.12l2.9,3Z" transform="translate(-100.6 -63.51)"/></svg>