<svg id="Layer_1" data-name="Layer 1" xmlns="http://www.w3.org/2000/svg" viewBox="0 0 138.42 145.04"><defs><style>.cls-1,.cls-2{fill:#121212;}.cls-2{opacity:0.5;}</style></defs><title>rsabunny</title><path class="cls-1" d="M184.06,164.68c-1.13-1.92-6.68-9.53-13-18.1a.6.6,0,0,0-.41-.24,20.36,20.36,0,0,1-13.37-7.24,23.33,23.33,0,0,0,16.23,5l.52-.05c.28,0,.55,0,.82-.09h0c4-.47,6-.78,7.35-2.26.72-.8.8-1.43,1.15-7.83.23-4.25.54-10.2-.13-14.29-.17-1-.38-2-.38-2-.18-.92-.37-1.72-.55-2.41-.05-.17-.1-.34-.14-.51,0,0,0,0,0-.06s-.08-.28-.13-.41-.07-.24-.11-.35a16.75,16.75,0,0,0-29.6-2.71s0,0,0,0a.25.25,0,0,1,0,.07c-.17.27-.32.55-.48.85s-.31.61-.45.94-.15.34-.2.49A15.49,15.49,0,0,0,150,118.4s0,0,0,0a31.1,31.1,0,0,1-5.32-5.48,35.18,35.18,0,0,1-5.73-13c-.75-2.73-4.07-14.78-12.3-22.23-7.78-7.08-17.73-7.57-23.13-7.29a.62.62,0,0,1-.6-.8,10.66,10.66,0,0,0,.38-2.85A10.84,10.84,0,1,0,87.4,75.92a.62.62,0,0,0,.68,0A17.38,17.38,0,0,1,92,73.54a18.42,18.42,0,0,1,5.65-1.45c-.9.32-1.66.61-2.3.9a35,35,0,0,0-4.16,2.32,36,36,0,0,0-3.57,2.59s0,0,0,0a13.15,13.15,0,0,0-2.51,2.73c-4,6-1.55,13.54-2.89,13.88S79.49,87.8,73,82.42c-1.43-1.18-4.93-4-7.31-2.86a4.22,4.22,0,0,0-1.91,3.58c-.13,3.15,2.9,5.21,5.37,7.72,4,4.11,3.14,6,7.13,12.68,8.93,14.93,21,18.44,22.75,18.65a8.16,8.16,0,0,0,1.19.07,9.61,9.61,0,0,0,3.82-.76l.11-.06c1.65-1.08,1.75-2.54,3.24-3.16,1.87-.78,4.11.53,5.21,1.21,13.78,8.52,42,43,47.28,50.26,1.56,2.14,3.79,5.46,7.59,6.15.43.07,2.72.5,3.41-.54s-.42-2.55-4.1-7.6c-4.31-5.9-4.59-6-5.54-7.71-2-3.58-3.85-9.08-2.3-10.25,1.11-.82,3.59.78,5,1.68,3.6,2.33,4.66,4.72,9.28,10.24,3.68,4.41,5.57,6.6,8.26,6.86.3,0,2.59.24,3.26-.91C185.25,166.71,184.39,165.25,184.06,164.68ZM164,125.09a1.22,1.22,0,0,1,1.5-1.26,6.42,6.42,0,0,1,4.4,3.43,6.14,6.14,0,0,1,.56,3.27,1.27,1.27,0,0,1-1.83,1l-2.19-1.08c-1.1-.54-1.59-.78-2-1.38-.18-.28-.37-.71-.44-2.62C164,126.06,164,125.6,164,125.09ZM68.74,80.73a.69.69,0,0,1,.68.7.68.68,0,0,1-.68.69.69.69,0,0,1-.69-.69A.7.7,0,0,1,68.74,80.73Zm-3.11,4.13a.7.7,0,0,1-.7-.7.7.7,0,1,1,.7.7Zm.26-2.74a.7.7,0,0,1,.7-.69.69.69,0,0,1,.69.69.7.7,0,0,1-.69.7A.71.71,0,0,1,65.89,82.12ZM70.38,86a.49.49,0,0,1-.11.14l0,0a.49.49,0,0,1-.14.11,2.27,2.27,0,0,1-1.41.39c-1.06,0-2-.67-2-1.39s.6-1.13,1.45-1.23c.1-.85.61-1.46,1.23-1.45s1.34.92,1.39,2A2.27,2.27,0,0,1,70.38,86ZM181,53.78c-2.38-.2-5.86,16.84-7.36,27.66a159.44,159.44,0,0,0-1.52,22,.59.59,0,0,0,.42.57,14.4,14.4,0,0,1,3.48,1.63A14.71,14.71,0,0,1,179.7,109a.6.6,0,0,0,1.06-.26,167.86,167.86,0,0,0,2.72-22.07C184.28,72.39,183.48,54,181,53.78ZM151.25,83c-4.28-8.8-13.12-25-15.56-24-.7.29-.85,2-.57,4.67a.61.61,0,0,0,.13.32,103.24,103.24,0,0,1,11.94,18.87q.28.58.54,1.14c.19.38.37.75.54,1.12s.43.93.64,1.43a103,103,0,0,1,6.28,19,.6.6,0,0,0,.94.35,15.19,15.19,0,0,1,3-1.6.6.6,0,0,0,.36-.75A166.51,166.51,0,0,0,151.25,83Z" transform="translate(-46.45 -45.15)"/><path class="cls-1" d="M93,133.47a6.84,6.84,0,0,1-3.21.39,6.27,6.27,0,0,1-3.68-2.09h-.88l-5.92,6.73L73,131.8l-11.4,7.73a5.52,5.52,0,0,1,3.24-.28A6.2,6.2,0,0,1,69,142.79l-.13,26.53,8.24,6.47,3.16-2.28V140.14a13.56,13.56,0,0,0,4.15,2.76,9.23,9.23,0,0,0,3.18.74,7,7,0,0,0,3.17-.63,7.41,7.41,0,0,0,3-2.73,13.75,13.75,0,0,0,1.6-3.81,32.77,32.77,0,0,0,.91-4.7A10.36,10.36,0,0,1,93,133.47Z" transform="translate(-46.45 -45.15)"/><path class="cls-1" d="M106.52,160.43a1.45,1.45,0,0,1-.18.17L100.09,166l-3.52-3.6V151.32a10,10,0,0,0,9.63,6.26,7.28,7.28,0,0,0,.93-.07l.13,0a.76.76,0,0,0,.16,0l.55-.09a10.8,10.8,0,0,0,1.37-.41l.06,0,.71-.31a9.32,9.32,0,0,0,3.42-3.22,14.2,14.2,0,0,0,2.26-5.37s0-.1,0-.15c.1-.63.19-1.25.25-1.89h-2.43l0,.3a4,4,0,0,1-1.44,2.34,4.51,4.51,0,0,1-2.69.9,6.27,6.27,0,0,1-2.78-.65,9,9,0,0,1-2.14-1.47,9.43,9.43,0,0,1-1.37-1.59L85.6,156v11.9l8.3,6.61c1.11-1,2.21-2,3.35-3l3.06-2.62,4.7,3.76v11.07a11.25,11.25,0,0,0-5.29-5.45,10.57,10.57,0,0,0-5.45-1.05,5.68,5.68,0,0,0-.69.09h0a4.11,4.11,0,0,0-.79.17,1.37,1.37,0,0,0-.28.05s0,0-.07,0l-.15,0h0a11,11,0,0,0-4.94,3.45,11.54,11.54,0,0,0-2.29,9H89a.37.37,0,0,1,0-.15,2.53,2.53,0,0,1,.11-1.47A3.19,3.19,0,0,1,90.22,187a4.64,4.64,0,0,1,2.51-.8,6.14,6.14,0,0,1,1.9.26,6.8,6.8,0,0,1,.68.24,7.91,7.91,0,0,1,3.82,3.38.33.33,0,0,0,.06.1l.17-.1L116,180V167.15l-5.52-4.1Z" transform="translate(-46.45 -45.15)"/><circle class="cls-1" cx="89.11" cy="131.72" r="12.2"/><circle class="cls-1" cx="113.52" cy="12.2" r="12.2"/><circle class="cls-1" cx="12.2" cy="71.45" r="12.2"/><path class="cls-2" d="M182.86,117.55a29.65,29.65,0,0,0-1.12-4.23A16.29,16.29,0,0,1,182.86,117.55Z" transform="translate(-46.45 -45.15)"/><path class="cls-1" d="M154,107.55a15.29,15.29,0,0,0-1.12,1.21.53.53,0,0,1-.88-.06,165.81,165.81,0,0,1-8.56-16.63,136.61,136.61,0,0,1-7.79-24.93,1.25,1.25,0,0,1,0-.19.43.43,0,0,1,.2-.39.48.48,0,0,1,.59.14.28.28,0,0,1,.1.14,124.87,124.87,0,0,1,13.59,27,125.29,125.29,0,0,1,4,13.44A.27.27,0,0,1,154,107.55Z" transform="translate(-46.45 -45.15)"/></svg>